<svg width="66" height="21" viewBox="0 0 66 21" fill="none" xmlns="http://www.w3.org/2000/svg">
<path d="M37.2831 15.9448C36.5147 16.701 35.5128 17.1747 34.4408 17.2885C33.3687 17.4023 32.2898 17.1496 31.3798 16.5715L29.5887 19.4149C31.1405 20.3955 32.9779 20.8236 34.8033 20.6298C36.6288 20.436 38.3354 19.6317 39.6467 18.3471L37.2831 15.9448ZM34.0568 4.36259C32.5774 4.33909 31.1196 4.71848 29.8394 5.46014C28.5592 6.20179 27.5048 7.27776 26.7894 8.57277C26.0739 9.86779 25.7242 11.3331 25.7778 12.8116C25.8314 14.2901 26.2862 15.7263 27.0935 16.9661L41.8633 10.6527C41.4477 8.88502 40.4542 7.30648 39.0402 6.16713C37.6262 5.02778 35.8724 4.39274 34.0568 4.36259V4.36259ZM29.1631 13.0203C29.0514 11.9985 29.2711 10.968 29.7898 10.0807C30.3084 9.19335 31.0986 8.49624 32.0436 8.09221C32.9887 7.68818 34.0386 7.59863 35.0384 7.83678C36.0382 8.07493 36.935 8.62815 37.5964 9.41483L29.1631 13.0203ZM46.5016 0.691406V16.4323L49.2328 17.5657L47.9446 20.6605L45.2367 19.5386C44.6914 19.3053 44.2281 18.9147 43.9059 18.4168C43.5461 17.8371 43.3645 17.1645 43.3837 16.4825V0.691406H46.5016ZM22.7182 0.691406V16.4323L25.4262 17.5657L24.138 20.6605L21.43 19.5386C20.903 19.3035 20.4555 18.9205 20.1418 18.4361C19.7806 17.8569 19.5977 17.1843 19.6157 16.5019V0.691406H22.7182Z" fill="white"/>
<path d="M59.9409 8.18848C60.5084 8.4622 61.0165 8.84506 61.436 9.31517C61.8555 9.78529 62.1784 10.3335 62.386 10.9284C62.5936 11.5233 62.682 12.1533 62.6462 12.7823C62.6103 13.4114 62.4508 14.0272 62.1768 14.5947L65.1981 16.0454C66.0159 14.3398 66.2154 12.4029 65.7624 10.5665C65.3093 8.73002 64.232 7.10816 62.7148 5.9786C61.1975 4.84904 59.3349 4.28203 57.4456 4.37466C55.5564 4.46728 53.7581 5.21379 52.3586 6.48635L54.6178 8.96604C55.3255 8.31878 56.211 7.89868 57.16 7.76006C58.1089 7.62144 59.0776 7.77068 59.9409 8.18848V8.18848Z" fill="#C7D540"/>
<path d="M55.7823 16.8423C54.6355 16.29 53.7548 15.3052 53.3334 14.1041C52.912 12.903 52.9844 11.5838 53.5348 10.4361L50.5135 8.98154C49.7038 10.6849 49.5095 12.6162 49.9637 14.4467C50.418 16.2772 51.4927 17.8937 53.0048 19.0208C54.517 20.148 56.3731 20.7161 58.2571 20.6286C60.141 20.541 61.9364 19.8031 63.3375 18.5405L61.0783 16.0647C60.3725 16.7055 59.4919 17.1216 58.5487 17.2601C57.6056 17.3986 56.6425 17.2531 55.7823 16.8423ZM16.5289 17.0705V12.5135C16.5289 10.9067 16.0524 9.33607 15.1598 8.00011C14.2671 6.66416 12.9983 5.62291 11.5139 5.00804C10.0295 4.39317 8.39605 4.23229 6.82019 4.54575C5.24432 4.85921 3.7968 5.63293 2.66066 6.76906C1.52453 7.9052 0.750809 9.35272 0.43735 10.9286C0.123891 12.5044 0.28477 14.1379 0.899642 15.6223C1.51451 17.1067 2.55576 18.3755 3.89172 19.2682C5.22767 20.1608 6.79832 20.6373 8.40506 20.6373C9.66453 20.6374 10.9068 20.3447 12.0337 19.7823L10.7261 16.7262C9.99407 17.131 9.16898 17.3377 8.33252 17.3257C7.49605 17.3138 6.67721 17.0836 5.957 16.6581C5.23678 16.2325 4.64016 15.6263 4.22616 14.8993C3.81216 14.1724 3.59513 13.35 3.59654 12.5135C3.59217 11.7276 3.78221 10.9528 4.14973 10.2581C4.47322 9.65193 4.92258 9.12188 5.46768 8.70355C6.01278 8.28522 6.64102 7.98826 7.31028 7.8326C7.66523 7.74853 8.02869 7.7057 8.39346 7.70494C9.67014 7.70391 10.895 8.20982 11.7988 9.11148C12.7027 10.0131 13.2115 11.2368 13.2136 12.5135V17.0318C13.1944 17.7138 13.376 18.3864 13.7358 18.9661C14.0603 19.462 14.5229 19.852 15.0666 20.0879L16.5908 20.6914L17.8828 17.5966L16.5289 17.0705Z" fill="white"/>
</svg>
